<svg xmlns="http://www.w3.org/2000/svg" version="1.0" preserveAspectRatio="xMidYMid meet" viewBox="69.4 211.6 451.83 144.4">

<g transform="translate(0.000000,640.000000) scale(0.100000,-0.100000)" fill="#000000" stroke="none">
<path d="M1320 4274 c-10 -11 -10 -14 0 -14 8 0 10 -8 6 -24 -4 -15 0 -28 9 -36 18 -15 20 -120 4 -189 -8 -34 -7 -46 3 -53 10 -8 10 -11 0 -15 -6 -2 -9 -9 -6 -14 6 -11 -21 -57 -45 -77 -14 -12 -14 -12 4 -8 17 5 20 1 21 -27 1 -59 9 -127 14 -127 4 0 12 6 19 13 11 10 12 9 6 -3 -6 -10 -2 -9 12 3 35 31 47 71 30 99 -9 12 -20 55 -26 93 -5 39 -13 81 -17 94 -4 14 -3 22 2 19 5 -4 10 38 12 97 2 99 2 103 -20 110 l-23 7 25 7 c33 9 37 35 6 49 -19 9 -27 8 -36 -4z"/>
<path d="M1215 4231 c-3 -5 -2 -17 1 -26 7 -17 45 -17 51 1 4 13 -44 37 -52 25z"/>
<path d="M1391 4221 c-7 -5 -10 -14 -6 -20 5 -9 10 -9 21 0 26 22 14 38 -15 20z"/>
<path d="M956 4175 c-3 -8 -1 -17 4 -20 5 -3 6 -13 3 -21 -4 -10 2 -17 15 -21 26 -6 52 -87 52 -158 0 -26 4 -44 9 -40 6 3 8 -17 7 -47 -2 -36 -8 -55 -20 -62 -14 -9 -30 3 -99 75 -89 93 -123 138 -119 156 4 19 -15 24 -29 6 -11 -12 -11 -17 -2 -20 7 -3 31 -28 54 -56 22 -29 70 -82 105 -119 71 -75 70 -92 -1 -27 -25 23 -47 40 -49 38 -2 -2 13 -42 35 -89 21 -47 39 -95 39 -106 0 -38 38 -52 124 -49 43 1 81 6 86 11 5 5 -4 45 -21 92 -16 46 -29 93 -30 105 -1 19 -2 18 -14 -8 -7 -17 -10 -36 -5 -45 4 -8 9 -40 11 -70 4 -50 2 -55 -18 -58 -16 -2 -26 5 -38 28 -28 53 -28 94 -1 123 31 33 42 112 26 187 -6 30 -11 61 -12 68 -1 6 -6 12 -12 12 -6 0 -5 5 2 12 13 13 16 29 5 26 -14 -4 -53 13 -53 23 0 5 -8 9 -17 9 -15 0 -16 2 -3 10 22 14 40 12 40 -5 0 -9 9 -15 25 -15 16 0 25 6 25 15 0 16 -10 22 -45 28 -18 4 -50 15 -66 23 -4 2 -9 -3 -13 -11z"/>
<path d="M1258 4182 c-38 -3 -48 -14 -27 -28 14 -8 6 -185 -10 -226 -8 -22 -7 -31 5 -43 22 -21 41 -19 69 10 29 28 31 49 9 101 -21 49 -29 155 -13 165 22 13 4 24 -33 21z"/>
<path d="M1097 4105 c-15 -11 -16 -13 -2 -19 9 -3 18 1 22 10 8 21 1 25 -20 9z"/>
<path d="M697 4102 c-2 -4 -3 -23 -3 -42 1 -30 6 -38 36 -52 19 -10 47 -32 62 -50 38 -45 35 -22 -3 30 -21 29 -38 42 -54 42 -34 0 -41 18 -8 22 14 2 28 8 30 15 5 13 -54 48 -60 35z"/>
<path d="M1371 3676 c-55 -58 -244 -107 -332 -86 -60 15 -73 8 -29 -15 67 -35 221 -11 324 49 41 24 74 61 64 72 -3 2 -15 -7 -27 -20z"/>
<path d="M1038 3603 c7 -3 16 -2 19 1 4 3 -2 6 -13 5 -11 0 -14 -3 -6 -6z"/>
<path d="M4453 3539 c-58 -18 -83 -39 -48 -39 13 0 15 -27 15 -179 0 -98 3 -199 6 -223 6 -43 9 -46 47 -58 22 -6 64 -14 92 -17 97 -10 166 52 181 161 13 95 -24 165 -98 188 l-41 12 -39 -45 -39 -44 6 116 c5 109 2 150 -14 148 -3 0 -34 -9 -68 -20z m157 -269 c11 -11 22 -31 26 -45 7 -30 1 -132 -10 -142 -4 -4 -26 -1 -49 7 l-42 15 -3 74 c-2 58 1 77 14 92 22 24 39 24 64 -1z"/>
<path d="M1633 3536 c-42 -9 -43 -10 -43 -48 l0 -40 43 7 c23 4 43 9 45 10 2 2 2 20 0 42 l-3 38 -42 -9z"/>
<path d="M2520 3475 c0 -68 2 -75 20 -75 18 0 20 7 20 75 0 68 -2 75 -20 75 -18 0 -20 -7 -20 -75z"/>
<path d="M4863 3536 c-42 -9 -43 -10 -43 -49 l0 -40 42 7 c23 4 44 8 46 10 2 2 2 21 0 43 l-3 38 -42 -9z"/>
<path d="M3190 3531 c-81 -25 -128 -71 -156 -153 -36 -106 -15 -238 47 -298 65 -61 163 -76 242 -37 45 23 47 24 74 6 50 -34 53 -29 53 96 0 96 3 115 15 115 8 0 15 7 15 15 0 12 -17 15 -95 15 -78 0 -95 -3 -95 -15 0 -8 9 -15 20 -15 18 0 20 -7 20 -80 l0 -80 -36 0 c-46 0 -93 29 -118 71 -27 46 -33 162 -12 226 15 45 76 123 97 123 4 0 24 -26 43 -57 55 -89 52 -86 68 -77 8 5 30 22 48 37 l33 28 -24 26 c-50 54 -158 78 -239 54z"/>
<path d="M1050 3521 c0 -5 9 -11 20 -14 19 -5 20 -14 20 -226 0 -214 -1 -221 -20 -221 -11 0 -20 -7 -20 -15 0 -12 18 -15 100 -15 82 0 100 3 100 15 0 8 -9 15 -20 15 -19 0 -20 7 -20 221 0 212 1 221 20 226 48 13 12 23 -80 23 -55 0 -100 -4 -100 -9z"/>
<path d="M1350 3520 c0 -5 7 -10 15 -10 8 0 15 -3 15 -8 0 -4 -34 -54 -75 -112 -41 -58 -75 -109 -75 -115 0 -5 27 -55 59 -110 43 -72 56 -101 45 -103 -8 -2 -14 -10 -14 -18 0 -11 22 -14 115 -14 96 0 115 3 115 15 0 8 -9 15 -20 15 -14 0 -46 39 -115 143 l-95 142 87 82 c49 45 96 82 106 83 9 0 17 5 17 10 0 6 -37 10 -90 10 -53 0 -90 -4 -90 -10z"/>
<path d="M2384 3429 c-30 -50 -31 -51 -86 -53 -33 -2 -68 -10 -83 -20 -68 -44 -87 -148 -39 -206 l27 -31 -38 -39 -39 -40 21 -22 c18 -19 20 -31 16 -70 -5 -43 -3 -50 25 -78 24 -24 39 -30 72 -30 47 0 105 22 139 53 29 27 81 106 81 124 0 23 -73 50 -155 57 -97 9 -115 13 -109 29 3 8 23 11 57 9 68 -5 120 17 147 60 41 68 34 142 -17 175 -34 22 -28 35 14 31 35 -3 39 0 61 39 13 24 21 47 17 53 -3 5 -23 10 -43 10 -34 0 -40 -4 -68 -51z m-68 -122 c20 -18 28 -34 31 -73 5 -60 -6 -79 -41 -70 -37 9 -61 51 -59 103 3 70 21 81 69 40z m64 -344 l35 -15 -30 -14 c-37 -16 -109 -18 -138 -2 -21 11 -46 37 -47 48 0 11 147 -3 180 -17z"/>
<path d="M5065 3439 c-22 -22 -52 -48 -67 -57 -35 -20 -36 -42 -3 -42 l25 0 0 -122 c0 -141 9 -166 61 -186 35 -13 38 -12 83 19 53 38 61 62 18 53 -47 -9 -57 14 -57 130 l0 101 43 3 c57 4 60 32 3 32 l-40 0 -3 52 c-2 28 -8 53 -13 55 -6 2 -29 -15 -50 -38z"/>
<path d="M1613 3358 c-58 -17 -84 -38 -48 -38 13 0 15 -22 15 -135 0 -83 -4 -135 -10 -135 -5 0 -10 -4 -10 -10 0 -6 33 -10 80 -10 47 0 80 4 80 10 0 6 -7 10 -15 10 -13 0 -15 24 -15 159 0 88 -3 162 -7 164 -5 2 -36 -5 -70 -15z"/>
<path d="M1923 3342 c-15 -23 -31 -41 -35 -42 -3 0 -9 13 -13 30 -4 16 -11 32 -15 35 -14 9 -121 -25 -115 -36 4 -5 13 -9 21 -9 11 0 14 -24 14 -135 0 -113 -2 -135 -15 -135 -8 0 -15 -4 -15 -10 0 -6 33 -10 80 -10 47 0 80 4 80 10 0 6 -4 10 -10 10 -15 0 -13 203 2 218 17 17 42 15 61 -6 24 -26 25 -212 2 -212 -8 0 -15 -4 -15 -10 0 -6 33 -10 80 -10 47 0 80 4 80 10 0 6 -4 10 -10 10 -6 0 -10 43 -10 110 0 152 -25 204 -103 217 -33 5 -38 2 -64 -35z"/>
<path d="M2690 3369 c-47 -19 -80 -60 -80 -99 0 -41 17 -63 84 -109 50 -34 63 -60 46 -91 -15 -29 -26 -25 -56 20 -15 22 -28 40 -31 40 -2 0 -17 -10 -33 -22 -29 -21 -29 -22 -12 -41 42 -46 112 -60 176 -33 43 18 66 51 66 97 0 38 -4 42 -108 131 -23 19 -32 35 -32 57 0 17 3 31 7 31 4 0 24 -17 45 -37 l38 -37 26 26 c31 30 26 44 -22 64 -38 16 -78 17 -114 3z"/>
<path d="M3588 3368 c-34 -9 -38 -14 -53 -65 -17 -58 -14 -79 8 -49 8 11 28 17 56 19 35 1 47 -3 63 -23 10 -13 18 -33 16 -44 -3 -18 -16 -23 -82 -36 -75 -14 -80 -17 -88 -45 -14 -54 16 -105 62 -105 15 0 45 7 66 16 35 15 39 15 51 -2 13 -17 16 -17 68 9 53 26 74 51 38 45 -16 -3 -18 7 -14 105 4 122 -6 148 -64 173 -39 16 -73 16 -127 2z m82 -252 c0 -23 -6 -36 -17 -40 -19 -8 -43 17 -43 44 0 23 9 30 37 30 20 0 23 -5 23 -34z"/>
<path d="M4002 3340 c-15 -21 -30 -39 -34 -40 -3 0 -9 13 -13 30 -4 16 -11 32 -15 35 -14 9 -121 -25 -115 -36 4 -5 13 -9 21 -9 11 0 14 -24 14 -135 0 -113 -2 -135 -15 -135 -8 0 -15 -4 -15 -10 0 -6 33 -10 80 -10 47 0 80 4 80 10 0 6 -4 10 -10 10 -6 0 -10 41 -10 104 0 112 9 134 50 121 30 -9 40 -44 40 -136 0 -62 -3 -81 -15 -85 -36 -14 -9 -24 65 -24 74 0 101 10 65 24 -12 4 -15 26 -15 104 0 101 7 122 41 122 39 0 49 -27 49 -131 0 -59 -4 -99 -10 -99 -5 0 -10 -4 -10 -10 0 -6 33 -10 80 -10 47 0 80 4 80 10 0 6 -7 10 -15 10 -12 0 -15 19 -15 115 0 133 -13 175 -59 199 -51 27 -73 21 -108 -31 l-32 -46 -10 26 c-12 31 -65 67 -99 67 -15 0 -31 -13 -50 -40z"/>
<path d="M4843 3358 c-58 -18 -83 -38 -49 -38 11 0 16 -28 21 -127 7 -111 6 -128 -9 -138 -28 -21 -18 -25 64 -25 74 0 101 10 65 24 -12 4 -15 32 -15 166 0 88 -3 160 -7 159 -5 -1 -36 -10 -70 -21z"/>
</g>
</svg>